<?xml version="1.0" encoding="utf-8"?><svg xmlns="http://www.w3.org/2000/svg" xmlns:xlink="http://www.w3.org/1999/xlink"><symbol fill="none" viewBox="0 0 580 378" id="mouse" xmlns="http://www.w3.org/2000/svg"><circle cx="391.688" cy="188.511" r="186.5" fill="#fff" stroke="#000" stroke-width="2"/><circle cx="391.688" cy="188.511" r="55.5" fill="#000" stroke="#000" stroke-width="2"/><circle cx="392.312" cy="189.136" r="13.125" fill="#fff" stroke="#000" stroke-width="2"/><path d="M1.188 25.017V362.01c0 8 9.666 12.667 14.5 14h363.5c8.799.8 12.333-4 13-6.5v-125c-52.5-45.5-23.167-97.333 0-112v-124c0-6-2.667-7.667-5.5-7.5h-363.5c-16 0-23.5 12.172-22 24.006z" fill="#fff" stroke="#000" stroke-width="2"/></symbol><symbol fill="none" viewBox="0 0 580 378" id="mouse-inverse" xmlns="http://www.w3.org/2000/svg"><circle cx="391.688" cy="188.512" r="186.5" fill="#000" stroke="#fff" stroke-width="2"/><circle cx="391.688" cy="188.512" r="55.5" fill="#fff" stroke="#fff" stroke-width="2"/><circle cx="392.312" cy="189.137" r="13.125" fill="#000" stroke="#fff" stroke-width="2"/><path d="M1.188 25.017V362.01c0 8 9.666 12.667 14.5 14h363.5c8.799.8 12.333-4 13-6.5v-125c-52.5-45.5-23.167-97.333 0-112v-124c0-6-2.667-7.667-5.5-7.5h-363.5c-16 0-23.5 12.172-22 24.006z" fill="#000" stroke="#fff" stroke-width="2"/></symbol></svg>